<svg width="16" height="16" viewBox="0 0 16 16" fill="none" xmlns="http://www.w3.org/2000/svg">
<path d="M13.6296 12.5958L10.873 9.83927C11.5367 8.95578 11.895 7.88039 11.8937 6.7754C11.8937 3.95294 9.59746 1.65665 6.775 1.65665C3.95254 1.65665 1.65625 3.95294 1.65625 6.7754C1.65625 9.59786 3.95254 11.8941 6.775 11.8941C7.87998 11.8954 8.95537 11.5371 9.83886 10.8734L12.5954 13.63C12.7349 13.7547 12.9169 13.8213 13.104 13.8161C13.2911 13.8108 13.4691 13.7342 13.6014 13.6018C13.7338 13.4695 13.8104 13.2915 13.8157 13.1044C13.8209 12.9173 13.7543 12.7353 13.6296 12.5958ZM3.11875 6.7754C3.11875 6.05226 3.33318 5.34537 3.73494 4.7441C4.13669 4.14283 4.70772 3.6742 5.37581 3.39747C6.0439 3.12074 6.77905 3.04833 7.4883 3.18941C8.19754 3.33048 8.84902 3.67871 9.36036 4.19004C9.87169 4.70138 10.2199 5.35286 10.361 6.0621C10.5021 6.77135 10.4297 7.5065 10.1529 8.17459C9.8762 8.84268 9.40757 9.41371 8.8063 9.81546C8.20503 10.2172 7.49814 10.4317 6.775 10.4317C5.80566 10.4305 4.87635 10.0449 4.19092 9.35948C3.5055 8.67405 3.11991 7.74474 3.11875 6.7754Z" fill="#2D3748"/>
</svg>
